<?xml version="1.0" ?><svg data-name="Layer 1" id="Layer_1" viewBox="0 0 32 32" xmlns="http://www.w3.org/2000/svg"><defs><style>.cls-1{fill:#ba63c6;}</style></defs><title/><path class="cls-1" d="M29.42,2.59h0a6.48,6.48,0,0,0-8.9-.25L9.27,12.39A6.89,6.89,0,0,0,7,12a7,7,0,0,0-.94,13.94A7,7,0,0,0,20,25a6.89,6.89,0,0,0-.39-2.27L29.66,11.49A6.48,6.48,0,0,0,29.42,2.59ZM26.68,8.82,15.75,21a2,2,0,0,0-.21,2.39A2.94,2.94,0,0,1,16,25a3,3,0,1,1-5.91-.68,2,2,0,0,0-2.41-2.41A3,3,0,1,1,7,16a2.94,2.94,0,0,1,1.57.46A2,2,0,0,0,11,16.25l8.69-7.78,1.94,1.94a2,2,0,0,0,2.83-2.83L22.63,5.8l.54-.49a2.48,2.48,0,0,1,3.41.09h0A2.48,2.48,0,0,1,26.68,8.82Z"/></svg>